# xmcd CD database file
#
# Track frame offsets:
#	150
#	21403
#	46761
#	81574
#	102078
#	122682
#	144399
#	162544
#	188274
#
# Disc length: 2714 seconds
#
# Revision: 0
# Processed by: cddbd v1.5.1PL0 Copyright (c) Steve Scherf et al.
# Submitted via: CDex 1.50beta10
#
DISCID=6f0a9809
DTITLE=horns and things - northern winds
DYEAR=1999
DGENRE=Jazz
TTITLE0=northern winds 
TTITLE1=yasmin
TTITLE2=clothes pin 
TTITLE3=today
TTITLE4=edge of the city
TTITLE5=until now
TTITLE6=scoope deville
TTITLE7=soixante sept
TTITLE8=carnival
EXTD=YEAR: 1999
EXTT0=
EXTT1=
EXTT2=
EXTT3=
EXTT4=
EXTT5=
EXTT6=
EXTT7=
EXTT8=
PLAYORDER=
